<?xml version="1.0" standalone="no"?>
<!DOCTYPE svg PUBLIC "-//W3C//DTD SVG 20010904//EN"
 "http://www.w3.org/TR/2001/REC-SVG-20010904/DTD/svg10.dtd">
<svg version="1.0" xmlns="http://www.w3.org/2000/svg"
 width="500.000000pt" height="439.000000pt" viewBox="0 0 500.000000 439.000000"
 preserveAspectRatio="xMidYMid meet">

<g transform="translate(0.000000,439.000000) scale(0.100000,-0.100000)"
fill="#000000" stroke="none">
<path d="M2047 4375 c-21 -8 -50 -23 -64 -33 -25 -18 -28 -18 -83 -1 -179 56
-413 48 -635 -20 -90 -28 -233 -84 -303 -120 l-63 -32 -29 25 c-124 104 -361
13 -455 -174 -90 -178 -85 -329 13 -428 l46 -47 -3 -105 c-6 -247 54 -516 194
-870 94 -237 109 -311 102 -490 -7 -161 -27 -246 -122 -510 -74 -208 -101
-305 -110 -405 -9 -90 13 -194 57 -277 37 -71 135 -179 220 -244 l57 -44 -16
-28 c-36 -62 18 -91 187 -102 70 -4 152 -17 210 -33 241 -64 488 -61 736 9
l92 26 78 -25 c125 -39 311 -78 404 -84 113 -7 163 7 217 62 54 54 57 88 11
132 -53 51 -74 55 -270 47 -131 -5 -178 -4 -178 5 0 8 207 11 806 11 l806 0
489 487 489 487 -2 845 -3 846 -254 3 -254 2 7 88 c4 48 27 271 52 495 24 224
42 412 39 417 -4 6 -293 10 -768 10 l-762 0 -24 -26 c-24 -25 -27 -45 -77
-502 -29 -263 -53 -478 -53 -479 -1 -2 -39 -3 -85 -3 l-84 0 -7 33 c-12 56
-76 249 -110 333 l-33 80 19 55 c24 70 24 147 -1 243 -27 105 -63 168 -134
233 -114 102 -252 145 -349 108z m217 -44 c168 -82 258 -232 259 -427 1 -69
-3 -89 -27 -138 -44 -90 -148 -147 -228 -126 -97 27 -249 202 -336 389 -45 96
-47 149 -9 214 72 123 203 156 341 88z m-509 19 c39 -6 95 -18 126 -26 l57
-16 -32 -51 c-46 -74 -44 -145 6 -249 82 -166 216 -329 310 -375 25 -13 63
-23 84 -23 49 0 119 32 161 72 l32 31 10 -24 c5 -13 23 -60 40 -104 97 -250
171 -613 205 -1015 34 -389 29 -939 -9 -1205 -45 -299 -187 -551 -404 -715
-453 -342 -1184 -304 -1596 82 -183 171 -226 356 -146 628 17 58 53 168 81
245 94 258 127 443 110 608 -12 117 -24 159 -106 367 -115 295 -164 479 -185
697 -14 143 -2 299 32 410 65 212 212 380 427 487 287 144 575 207 797 176z
m2682 -142 c-26 -204 -109 -1019 -104 -1024 4 -4 13 -1 22 6 9 7 17 11 20 9 2
-3 -142 -147 -320 -322 l-323 -317 -393 0 -393 0 79 47 c44 26 99 66 122 88
39 38 43 46 43 92 0 57 -12 72 -77 93 -79 25 -155 1 -282 -87 -35 -24 -65 -43
-66 -41 -2 2 -13 70 -24 152 l-22 150 62 62 61 62 59 533 c32 294 58 535 59
537 0 1 334 2 741 2 l742 0 -6 -42z m-3617 -10 c24 -13 45 -28 47 -34 2 -6
-20 -27 -50 -46 -157 -104 -280 -288 -327 -485 -6 -29 -16 -53 -20 -53 -11 0
-52 55 -75 100 -53 104 10 337 118 437 102 94 220 125 307 81z m2005 -970 c-5
-34 -18 -55 -60 -97 l-52 -53 -17 78 c-10 44 -20 87 -22 97 -5 15 3 17 76 17
l82 0 -7 -42z m2085 -790 l1 -833 -488 -482 -488 -482 -778 -1 -778 0 79 80
c162 161 265 365 307 607 25 143 38 449 33 791 l-5 322 469 0 469 0 197 189
c108 104 258 252 333 328 l137 138 6 79 c4 44 9 83 12 88 3 4 115 8 250 8
l244 0 0 -832z m-1883 401 c-77 -40 -63 -56 16 -18 94 44 127 37 127 -28 0
-46 -20 -73 -88 -120 -63 -44 -275 -163 -290 -163 -6 0 -13 45 -17 100 -8 116
-10 112 80 173 72 49 159 87 200 86 27 0 25 -3 -28 -30z m-617 -2264 c14 0 82
4 152 9 83 5 136 5 155 -2 l28 -10 -35 -1 c-57 -2 -110 -13 -110 -23 0 -6 29
-7 75 -3 82 8 125 -7 125 -44 0 -25 -44 -77 -80 -96 -80 -41 -274 -21 -538 57
l-73 21 98 53 c86 46 103 52 138 46 22 -3 51 -6 65 -7z m-1426 -41 l91 -46
-75 7 c-70 6 -140 26 -140 40 0 11 20 45 26 45 4 0 47 -21 98 -46z"/>
<path d="M871 1244 c-40 -50 -21 -176 49 -331 30 -65 65 -97 102 -91 19 2 24
10 26 42 4 42 -42 313 -60 359 -21 53 -83 64 -117 21z m76 -2 c17 -11 31 -54
43 -130 5 -37 17 -106 26 -154 19 -103 16 -123 -20 -107 -41 19 -126 240 -126
328 0 51 42 85 77 63z"/>
<path d="M2976 4178 c-5 -23 -106 -898 -106 -918 0 -7 221 -10 700 -10 l700 0
4 23 c5 22 106 897 106 917 0 7 -221 10 -700 10 l-700 0 -4 -22z m579 -40 c-7
-23 -7 -23 8 -3 9 11 19 16 24 11 4 -5 3 -11 -4 -13 -7 -2 -10 -10 -7 -17 3
-9 -3 -13 -20 -13 -14 0 -26 2 -26 6 1 20 14 51 22 51 5 0 6 -10 3 -22z m478
5 c11 -6 9 -43 -3 -43 -5 0 -10 8 -10 18 -1 16 -1 16 -11 0 -5 -10 -19 -18
-29 -18 -22 0 -23 3 -14 37 5 19 11 22 33 17 14 -4 29 -9 34 -11z m-623 -9 c0
-15 -43 -64 -56 -64 -6 0 5 59 13 73 8 14 43 7 43 -9z m70 4 c0 -9 3 -9 12 0
15 15 38 16 38 2 0 -5 -7 -10 -15 -10 -18 0 -20 -17 -2 -23 6 -2 -9 -4 -35 -4
-52 -1 -67 9 -48 32 15 18 50 20 50 3z m170 -5 c1 -17 1 -17 11 0 5 9 19 17
29 17 12 0 20 -7 20 -17 1 -17 1 -17 11 0 11 19 34 23 44 7 8 -13 -22 -43 -38
-37 -6 2 -22 -5 -34 -16 -13 -11 -26 -17 -30 -13 -4 4 -2 11 6 15 18 12 -7 20
-41 14 -30 -6 -45 12 -28 32 17 21 50 19 50 -2z m240 -8 c0 -21 -4 -24 -33
-23 -30 1 -33 4 -29 25 3 18 11 23 33 23 24 0 29 -4 29 -25z m66 9 c-3 -9 -6
-20 -6 -25 0 -12 -37 -11 -45 1 -9 15 14 40 37 40 14 0 18 -5 14 -16z m-602
-231 c-7 -31 -12 -38 -18 -32 -7 7 6 59 15 59 5 0 6 -12 3 -27z m291 -9 c1
-30 -11 -31 -26 -3 -9 17 -8 23 2 30 17 10 24 3 24 -27z m85 24 c0 -9 4 -8 10
2 8 13 10 12 10 -2 0 -11 -8 -18 -20 -18 -11 0 -20 7 -20 15 0 8 5 15 10 15 6
0 10 -6 10 -12z m56 -33 c-19 -20 -23 -19 -22 5 1 26 30 46 34 25 2 -8 -3 -22
-12 -30z m129 9 c1 -30 -11 -31 -26 -3 -9 17 -8 23 2 30 17 10 24 3 24 -27z
m31 9 c-10 -10 -19 5 -10 18 6 11 8 11 12 0 2 -7 1 -15 -2 -18z m28 12 c-4 -8
-8 -15 -10 -15 -2 0 -4 7 -4 15 0 8 4 15 10 15 5 0 7 -7 4 -15z m-545 -12 c10
-17 10 -17 11 0 0 22 38 23 47 1 5 -15 7 -15 15 0 13 23 37 20 48 -6 l9 -23 0
22 c1 15 7 21 21 20 25 -2 25 -9 3 -29 -13 -11 -33 -15 -66 -13 -38 3 -51 -1
-67 -18 l-20 -21 0 23 c0 12 -4 19 -10 16 -5 -3 -11 2 -11 12 -1 17 -2 17 -6
1 -5 -18 -43 -26 -43 -9 0 41 50 57 69 24z m439 -11 c3 -18 -1 -23 -15 -20
-10 2 -21 10 -25 18 -5 12 -7 12 -7 -2 -1 -10 -6 -18 -12 -18 -6 0 -8 7 -5 16
3 9 6 20 6 25 0 6 12 9 28 7 19 -2 28 -9 30 -26z m-539 -214 c1 6 5 12 10 12
5 0 7 -10 3 -22 -3 -14 -2 -19 6 -14 7 4 12 14 12 22 0 8 5 14 10 14 11 0 13
-11 4 -34 -7 -19 -35 -21 -53 -3 -11 10 -14 10 -18 0 -7 -20 -20 -15 -19 7 1
29 29 45 38 22 4 -9 7 -11 7 -4z m424 5 c11 -6 9 -43 -3 -43 -5 0 -10 7 -10
15 0 8 -4 15 -10 15 -5 0 -10 -6 -10 -14 0 -9 -9 -14 -20 -13 -22 1 -22 2 -14
34 5 19 11 22 33 17 14 -4 29 -9 34 -11z m40 -15 c-3 -15 -9 -25 -14 -22 -13
8 -11 42 4 47 16 6 16 6 10 -25z m43 17 c7 -16 -12 -45 -28 -45 -6 0 -6 6 1
14 6 7 9 21 5 30 -3 9 -1 16 5 16 7 0 14 -7 17 -15z m104 6 c0 -5 -7 -12 -16
-15 -13 -5 -14 -9 -4 -21 10 -12 10 -15 -3 -15 -20 0 -27 21 -13 43 11 18 36
24 36 8z m-503 -17 c5 -15 7 -15 15 0 10 18 38 22 38 6 0 -5 -7 -10 -15 -10
-18 0 -20 -16 -2 -23 6 -3 -3 -5 -20 -4 -21 0 -33 5 -33 14 0 7 -4 13 -10 13
-5 0 -10 -7 -10 -15 0 -8 -5 -15 -11 -15 -6 0 -8 7 -5 16 3 9 6 20 6 25 0 16
40 10 47 -7z m171 -12 c3 -18 -1 -23 -15 -20 -10 2 -21 10 -25 18 -5 12 -7 12
-7 -2 -1 -10 -6 -18 -12 -18 -6 0 -8 7 -5 16 3 9 6 20 6 25 0 6 12 9 28 7 19
-2 28 -9 30 -26z m64 3 c-5 -29 -39 -35 -49 -9 -6 17 12 34 38 34 12 0 15 -7
11 -25z m-48 -97 c4 7 12 12 18 12 7 0 6 -5 -2 -15 -6 -8 -9 -18 -7 -22 3 -5
-17 -10 -44 -11 -37 -1 -51 2 -56 13 -7 20 -1 26 39 34 25 5 34 3 39 -8 4 -11
8 -11 13 -3z m152 5 c-3 -8 -6 -21 -6 -29 0 -19 -49 -18 -56 1 -9 22 12 43 42
43 18 0 24 -5 20 -15z m45 -5 l2 -23 4 23 c2 12 9 22 15 22 5 0 7 -7 4 -16 -3
-9 -6 -21 -6 -28 0 -8 -13 -13 -32 -13 -18 -1 -27 1 -20 4 6 3 12 16 12 29 0
30 20 32 21 2z m135 11 c3 -6 1 -15 -6 -19 -19 -12 -1 -32 22 -24 18 5 19 4 7
-9 -12 -12 -17 -13 -33 -1 -20 14 -29 41 -20 56 7 11 22 10 30 -3z m147 -1
c-4 -7 -8 -20 -8 -28 0 -9 -11 -16 -30 -17 -29 -2 -29 -2 -5 7 17 5 19 8 8 9
-18 1 -24 21 -11 34 3 4 17 7 30 7 17 0 22 -4 16 -12z m37 -12 c0 -13 -7 -26
-15 -30 -12 -4 -13 -2 -7 12 5 9 7 23 5 30 -3 6 0 12 6 12 6 0 11 -11 11 -24z
m-868 -11 c-5 -29 -39 -35 -49 -9 -6 17 12 34 38 34 12 0 15 -7 11 -25z m78
15 c0 -5 -4 -10 -10 -10 -5 0 -10 5 -10 10 0 6 5 10 10 10 6 0 10 -4 10 -10z
m50 0 c0 -5 -9 -10 -20 -10 -11 0 -20 5 -20 10 0 6 9 10 20 10 11 0 20 -4 20
-10z m118 -18 c3 -18 -1 -23 -15 -20 -10 2 -21 10 -25 18 -5 12 -7 12 -7 -2
-1 -10 -6 -18 -12 -18 -6 0 -8 7 -5 16 3 9 6 20 6 25 0 6 12 9 28 7 19 -2 28
-9 30 -26z m182 13 c0 -8 -5 -15 -11 -15 -5 0 -7 -4 -4 -10 3 -5 -1 -10 -9
-10 -21 0 -30 18 -16 35 16 19 40 19 40 0z m200 -10 c0 -14 -5 -25 -11 -25 -6
0 -9 7 -5 15 3 8 1 15 -4 15 -6 0 -10 -7 -10 -15 0 -8 -4 -15 -10 -15 -11 0
-14 33 -3 43 3 4 15 7 25 7 13 0 18 -7 18 -25z m-507 -12 c-7 -2 -21 -2 -30 0
-10 3 -4 5 12 5 17 0 24 -2 18 -5z m20 -80 c11 -6 9 -43 -3 -43 -5 0 -10 8
-10 18 -1 16 -1 16 -11 0 -15 -27 -27 -22 -23 10 4 25 -1 19 -12 -17 -8 -24
-15 -4 -8 23 5 22 10 25 33 20 14 -4 29 -9 34 -11z m52 -14 c-5 -16 -1 -19 21
-19 27 0 27 1 8 15 -16 13 -17 16 -4 25 22 14 53 13 43 -2 -4 -7 -8 -20 -8
-28 0 -10 -12 -16 -37 -18 -29 -3 -39 1 -48 19 -10 17 -9 23 1 30 19 11 31 0
24 -22z m121 15 c-3 -9 -6 -22 -6 -29 0 -8 -9 -13 -20 -12 -33 2 -22 57 12 57
14 0 18 -5 14 -16z m155 4 c0 -10 2 -10 6 0 2 6 13 12 24 12 20 0 26 -15 9
-25 -5 -3 -10 0 -10 7 0 10 -2 11 -8 0 -5 -8 -16 -10 -27 -6 -15 6 -17 4 -13
-14 4 -12 2 -22 -2 -22 -16 0 -21 20 -10 40 12 22 30 27 31 8z m159 3 c0 -15
-20 -24 -21 -9 0 10 -2 10 -6 1 -2 -7 -11 -13 -19 -13 -8 0 -14 -7 -14 -15 0
-17 -35 -21 -45 -5 -11 18 17 42 42 37 13 -2 23 0 23 4 0 5 9 9 20 9 11 0 20
-4 20 -9z m180 -15 c0 -13 -7 -26 -15 -30 -12 -4 -13 -2 -7 12 5 9 7 23 5 30
-3 6 0 12 6 12 6 0 11 -11 11 -24z m-800 -2 c0 -15 -43 -64 -56 -64 -6 0 5 59
13 73 8 14 43 7 43 -9z m60 11 c0 -10 -42 -47 -47 -42 -11 12 10 47 28 47 10
0 19 -2 19 -5z m300 -5 c0 -5 -7 -10 -15 -10 -18 0 -20 -16 -2 -23 7 -3 6 -6
-5 -6 -23 -1 -32 17 -18 34 14 17 40 20 40 5z m50 -5 c0 -8 -5 -15 -11 -15 -5
0 -7 -4 -4 -10 3 -5 -1 -10 -9 -10 -21 0 -30 18 -16 35 16 19 40 19 40 0z
m352 -10 c-5 -29 -39 -35 -49 -9 -6 17 12 34 38 34 12 0 15 -7 11 -25z m-124
-29 c-7 -8 -17 -12 -22 -9 -4 3 -2 9 5 14 22 13 31 11 17 -5z m-787 -56 c27
-15 24 -38 -6 -46 -32 -8 -34 -6 -28 29 6 31 7 31 34 17z m359 -6 c0 -13 3
-14 14 -5 11 10 14 7 12 -12 -1 -20 -6 -23 -49 -25 -59 -3 -70 3 -57 29 13 24
47 25 53 2 4 -14 5 -12 6 5 1 25 21 31 21 6z m123 -16 c-3 -15 -9 -25 -14 -22
-13 8 -11 42 4 47 16 6 16 6 10 -25z m47 23 c0 -6 -5 -13 -11 -16 -6 -4 -8
-13 -5 -21 3 -8 -1 -14 -10 -14 -11 0 -14 6 -10 16 3 9 6 22 6 30 0 8 7 14 15
14 8 0 15 -4 15 -9z m41 -8 c1 -17 2 -17 6 0 3 13 11 16 31 11 15 -4 30 -9 35
-11 11 -6 9 -43 -3 -43 -5 0 -10 8 -10 18 -1 16 -1 16 -11 0 -11 -21 -49 -24
-50 -5 0 10 -2 10 -6 0 -2 -7 -12 -13 -20 -13 -12 0 -13 3 -4 14 6 7 9 21 5
30 -4 11 -1 16 10 16 9 0 17 -8 17 -17z m132 10 c4 -3 2 -12 -4 -19 -13 -16
-2 -37 17 -30 8 3 11 0 7 -10 -7 -19 -12 -18 -40 12 -19 20 -21 29 -12 40 13
15 22 18 32 7z m145 -20 c2 -14 -4 -23 -17 -28 -27 -8 -42 1 -34 23 14 37 46
40 51 5z m189 11 c9 -23 -13 -38 -60 -40 -33 -2 -37 0 -17 6 17 5 19 8 8 9
-11 1 -18 9 -18 21 0 17 7 20 40 20 28 0 43 -5 47 -16z m-937 -4 c0 -5 -4 -10
-10 -10 -5 0 -10 5 -10 10 0 6 5 10 10 10 6 0 10 -4 10 -10z m50 0 c0 -5 -9
-10 -20 -10 -11 0 -20 5 -20 10 0 6 9 10 20 10 11 0 20 -4 20 -10z m113 -2 c8
-24 -5 -38 -34 -38 -21 0 -29 5 -29 18 0 10 3 22 7 25 11 12 51 8 56 -5z m183
0 c4 -6 2 -14 -4 -16 -7 -2 -10 -8 -6 -13 3 -5 -2 -9 -11 -9 -21 0 -31 30 -14
41 19 12 26 11 35 -3z m-313 -25 c-7 -2 -19 -2 -25 0 -7 3 -2 5 12 5 14 0 19
-2 13 -5z m741 -18 c-7 -16 -24 -21 -24 -6 0 8 7 13 27 20 1 1 0 -6 -3 -14z"/>
<path d="M3982 4130 c0 -14 2 -19 5 -12 2 6 2 18 0 25 -3 6 -5 1 -5 -13z"/>
<path d="M3380 4119 c0 -5 5 -7 10 -4 6 3 10 8 10 11 0 2 -4 4 -10 4 -5 0 -10
-5 -10 -11z"/>
<path d="M3440 4119 c0 -5 5 -7 10 -4 6 3 10 8 10 11 0 2 -4 4 -10 4 -5 0 -10
-5 -10 -11z"/>
<path d="M3610 4119 c0 -5 5 -7 10 -4 6 3 10 8 10 11 0 2 -4 4 -10 4 -5 0 -10
-5 -10 -11z"/>
<path d="M3675 4120 c3 -5 8 -10 11 -10 2 0 4 5 4 10 0 6 -5 10 -11 10 -5 0
-7 -4 -4 -10z"/>
<path d="M3920 4119 c0 -5 5 -7 10 -4 6 3 10 8 10 11 0 2 -4 4 -10 4 -5 0 -10
-5 -10 -11z"/>
<path d="M3455 3890 c3 -5 8 -10 11 -10 2 0 4 5 4 10 0 6 -5 10 -11 10 -5 0
-7 -4 -4 -10z"/>
<path d="M3515 3890 c3 -5 8 -10 11 -10 2 0 4 5 4 10 0 6 -5 10 -11 10 -5 0
-7 -4 -4 -10z"/>
<path d="M3701 3674 c0 -11 3 -14 6 -6 3 7 2 16 -1 19 -3 4 -6 -2 -5 -13z"/>
<path d="M3581 3554 c0 -11 3 -14 6 -6 3 7 2 16 -1 19 -3 4 -6 -2 -5 -13z"/>
<path d="M3735 3567 c-4 -10 -5 -21 -1 -24 10 -10 18 4 13 24 -4 17 -4 17 -12
0z"/>
<path d="M3561 3454 c0 -11 3 -14 6 -6 3 7 2 16 -1 19 -3 4 -6 -2 -5 -13z"/>
<path d="M3810 3439 c0 -5 5 -7 10 -4 6 3 10 8 10 11 0 2 -4 4 -10 4 -5 0 -10
-5 -10 -11z"/>
<path d="M3250 3439 c0 -5 5 -7 10 -4 6 3 10 8 10 11 0 2 -4 4 -10 4 -5 0 -10
-5 -10 -11z"/>
<path d="M3115 3330 c3 -5 8 -10 11 -10 2 0 4 5 4 10 0 6 -5 10 -11 10 -5 0
-7 -4 -4 -10z"/>
<path d="M3425 3330 c3 -5 8 -10 11 -10 2 0 4 5 4 10 0 6 -5 10 -11 10 -5 0
-7 -4 -4 -10z"/>
<path d="M3722 3340 c0 -14 2 -19 5 -12 2 6 2 18 0 25 -3 6 -5 1 -5 -13z"/>
<path d="M3945 3341 c-3 -5 -1 -12 5 -16 5 -3 10 1 10 9 0 18 -6 21 -15 7z"/>
<path d="M4127 3353 c-3 -5 -2 -15 2 -22 7 -10 10 -10 16 -1 4 6 3 16 -3 22
-5 5 -12 6 -15 1z"/>
<path d="M3380 1568 c-19 -32 -20 -52 -20 -443 0 -391 1 -411 20 -442 l20 -33
240 0 240 0 20 32 c19 32 20 52 20 443 0 391 -1 411 -20 443 l-20 32 -240 0
-240 0 -20 -32z m490 12 c35 -19 40 -74 40 -455 0 -381 -5 -436 -40 -455 -29
-16 -442 -13 -464 3 -31 22 -36 85 -36 452 0 367 5 430 36 452 22 16 435 19
464 3z"/>
<path d="M3520 1505 c0 -34 -50 -185 -61 -185 -5 0 -9 8 -9 17 0 32 -42 173
-52 173 -6 0 -7 -8 -3 -17 3 -10 29 -115 57 -233 28 -118 53 -217 55 -219 13
-17 11 20 -8 100 -11 52 -23 105 -26 118 -6 24 -5 23 42 -10 26 -19 70 -60 97
-92 43 -52 47 -60 36 -80 -29 -52 2 -273 39 -285 9 -3 9 5 -2 30 -22 55 -38
164 -30 215 l7 47 19 -24 c10 -14 24 -38 30 -53 10 -24 9 -31 -11 -52 -25 -27
-21 -32 10 -13 10 7 22 9 25 6 13 -12 55 -151 65 -210 5 -33 12 -63 16 -67 16
-15 -6 122 -34 204 -17 50 -27 94 -22 99 4 4 11 -1 15 -13 3 -12 11 -21 16
-21 12 0 11 7 -1 30 -6 12 -7 21 0 25 5 3 19 -13 30 -36 27 -52 39 -43 15 11
-18 39 -18 41 1 54 10 8 16 18 12 22 -4 4 -15 1 -23 -6 -13 -11 -18 -10 -31 6
-15 18 -15 18 -10 -5 5 -22 -15 -50 -35 -51 -4 0 -26 32 -48 70 -50 83 -145
188 -196 215 -19 11 -33 24 -31 30 52 113 80 225 57 225 -6 0 -11 -11 -11 -25z"/>
<path d="M3690 1524 c0 -3 10 -38 22 -77 13 -43 24 -64 26 -53 5 24 -28 136
-40 136 -4 0 -8 -3 -8 -6z"/>
<path d="M3673 1422 c-6 -24 -14 -27 -30 -11 -8 8 -13 8 -17 0 -4 -6 -2 -11 4
-11 7 0 4 -7 -5 -16 -9 -9 -14 -21 -12 -28 6 -17 33 -19 49 -3 8 8 23 16 33
18 10 2 20 11 23 19 4 12 2 13 -9 3 -21 -20 -34 -15 -15 6 15 16 15 19 1 31
-14 11 -17 10 -22 -8z"/>
<path d="M3548 1395 c-8 -8 23 -85 34 -85 10 0 3 31 -16 68 -7 12 -15 20 -18
17z"/>
<path d="M3584 1387 c-5 -13 11 -67 20 -67 2 0 3 18 3 40 -2 39 -13 52 -23 27z"/>
<path d="M3798 1216 c-9 -8 -19 -12 -23 -8 -5 4 -5 -1 -2 -10 4 -11 2 -15 -7
-12 -23 9 -66 -14 -66 -36 0 -11 2 -20 5 -20 10 0 80 43 86 53 4 5 14 7 23 4
17 -7 21 9 7 31 -7 11 -11 11 -23 -2z"/>
</g>
</svg>
